<svg width="42" height="41" viewBox="0 0 42 41" fill="none" xmlns="http://www.w3.org/2000/svg">
<g clip-path="url(#clip0_213_15770)">
<rect x="0.826172" y="0.0551758" width="40.854" height="40.854" rx="20.427" fill="#228B22"/>
<path d="M26.9982 16.0137L16.7847 26.2272C16.4357 26.5762 15.8569 26.5762 15.508 26.2272C15.159 25.8782 15.159 25.2995 15.508 24.9505L25.7215 14.737C26.0704 14.3881 26.6492 14.3881 26.9982 14.737C27.3471 15.086 27.3471 15.6648 26.9982 16.0137Z" fill="white"/>
<path d="M26.9982 26.2273C26.6492 26.5763 26.0704 26.5763 25.7215 26.2273L15.508 16.0138C15.159 15.6649 15.159 15.0861 15.508 14.7371C15.8569 14.3882 16.4357 14.3882 16.7847 14.7371L26.9982 24.9506C27.3471 25.2996 27.3471 25.8784 26.9982 26.2273Z" fill="white"/>
</g>
<defs>
<clipPath id="clip0_213_15770">
<rect x="0.826172" y="0.0551758" width="40.854" height="40.854" rx="20.427" fill="white"/>
</clipPath>
</defs>
</svg>
