<svg width="24" height="24" viewBox="0 0 24 24" fill="none" xmlns="http://www.w3.org/2000/svg">
<path d="M12 2.78313C14.9819 2.78313 15.3886 2.78313 16.6084 2.78313C17.6928 2.78313 18.2349 3.05422 18.6416 3.18976C19.1837 3.46084 19.5904 3.59639 19.997 4.00301C20.4036 4.40964 20.6747 4.81627 20.8102 5.35843C20.9458 5.76506 21.0813 6.30723 21.2169 7.39157C21.2169 8.61145 21.2169 8.88253 21.2169 12C21.2169 15.1175 21.2169 15.3886 21.2169 16.6084C21.2169 17.6928 20.9458 18.2349 20.8102 18.6416C20.5392 19.1837 20.4036 19.5904 19.997 19.997C19.5904 20.4036 19.1837 20.6747 18.6416 20.8102C18.2349 20.9458 17.6928 21.0813 16.6084 21.2169C15.3886 21.2169 15.1175 21.2169 12 21.2169C8.88253 21.2169 8.61145 21.2169 7.39157 21.2169C6.30723 21.2169 5.76506 20.9458 5.35843 20.8102C4.81627 20.5392 4.40964 20.4036 4.00301 19.997C3.59639 19.5904 3.3253 19.1837 3.18976 18.6416C3.05422 18.2349 2.91867 17.6928 2.78313 16.6084C2.78313 15.3886 2.78313 15.1175 2.78313 12C2.78313 8.88253 2.78313 8.61145 2.78313 7.39157C2.78313 6.30723 3.05422 5.76506 3.18976 5.35843C3.46084 4.81627 3.59639 4.40964 4.00301 4.00301C4.40964 3.59639 4.81627 3.3253 5.35843 3.18976C5.76506 3.05422 6.30723 2.91867 7.39157 2.78313C8.61145 2.78313 9.01807 2.78313 12 2.78313ZM12 0.75C8.88253 0.75 8.61145 0.75 7.39157 0.75C6.17169 0.75 5.35843 1.02109 4.68072 1.29217C4.00301 1.56325 3.3253 1.96988 2.64759 2.64759C1.96988 3.3253 1.6988 3.86747 1.29217 4.68072C1.02109 5.35843 0.885542 6.17169 0.75 7.39157C0.75 8.61145 0.75 9.01807 0.75 12C0.75 15.1175 0.75 15.3886 0.75 16.6084C0.75 17.8283 1.02109 18.6416 1.29217 19.3193C1.56325 19.997 1.96988 20.6747 2.64759 21.3524C3.3253 22.0301 3.86747 22.3012 4.68072 22.7078C5.35843 22.9789 6.17169 23.1145 7.39157 23.25C8.61145 23.25 9.01807 23.25 12 23.25C14.9819 23.25 15.3886 23.25 16.6084 23.25C17.8283 23.25 18.6416 22.9789 19.3193 22.7078C19.997 22.4367 20.6747 22.0301 21.3524 21.3524C22.0301 20.6747 22.3012 20.1325 22.7078 19.3193C22.9789 18.6416 23.1145 17.8283 23.25 16.6084C23.25 15.3886 23.25 14.9819 23.25 12C23.25 9.01807 23.25 8.61145 23.25 7.39157C23.25 6.17169 22.9789 5.35843 22.7078 4.68072C22.4367 4.00301 22.0301 3.3253 21.3524 2.64759C20.6747 1.96988 20.1325 1.6988 19.3193 1.29217C18.6416 1.02109 17.8283 0.885542 16.6084 0.75C15.3886 0.75 15.1175 0.75 12 0.75Z" fill="#36382E"/>
<path d="M12 6.17169C8.74699 6.17169 6.17169 8.74699 6.17169 12C6.17169 15.253 8.74699 17.8283 12 17.8283C15.253 17.8283 17.8283 15.253 17.8283 12C17.8283 8.74699 15.253 6.17169 12 6.17169ZM12 15.7952C9.96687 15.7952 8.20482 14.1687 8.20482 12C8.20482 9.96687 9.83133 8.20482 12 8.20482C14.0331 8.20482 15.7952 9.83133 15.7952 12C15.7952 14.0331 14.0331 15.7952 12 15.7952Z" fill="#36382E"/>
<path d="M17.9639 7.39157C18.7124 7.39157 19.3193 6.78472 19.3193 6.03615C19.3193 5.28757 18.7124 4.68072 17.9639 4.68072C17.2153 4.68072 16.6084 5.28757 16.6084 6.03615C16.6084 6.78472 17.2153 7.39157 17.9639 7.39157Z" fill="#36382E"/>
</svg>
