<svg width="24" height="25" viewBox="0 0 24 25" fill="none" xmlns="http://www.w3.org/2000/svg">
<path d="M11.9999 14.6699C9.86988 14.6699 8.12988 12.9399 8.12988 10.7999C8.12988 8.65994 9.86988 6.93994 11.9999 6.93994C14.1299 6.93994 15.8699 8.66994 15.8699 10.8099C15.8699 12.9499 14.1299 14.6699 11.9999 14.6699ZM11.9999 8.43994C10.6999 8.43994 9.62988 9.49994 9.62988 10.8099C9.62988 12.1199 10.6899 13.1799 11.9999 13.1799C13.3099 13.1799 14.3699 12.1199 14.3699 10.8099C14.3699 9.49994 13.2999 8.43994 11.9999 8.43994Z" fill="#B1A9A9"/>
<path d="M12.0002 23.26C10.5202 23.26 9.03018 22.7 7.87018 21.59C4.92018 18.75 1.66018 14.22 2.89018 8.83C4.00018 3.94 8.27018 1.75 12.0002 1.75C12.0002 1.75 12.0002 1.75 12.0102 1.75C15.7402 1.75 20.0102 3.94 21.1202 8.84C22.3402 14.23 19.0802 18.75 16.1302 21.59C14.9702 22.7 13.4802 23.26 12.0002 23.26ZM12.0002 3.25C9.09018 3.25 5.35018 4.8 4.36018 9.16C3.28018 13.87 6.24018 17.93 8.92018 20.5C10.6502 22.17 13.3602 22.17 15.0902 20.5C17.7602 17.93 20.7202 13.87 19.6602 9.16C18.6602 4.8 14.9102 3.25 12.0002 3.25Z" fill="#B1A9A9"/>
</svg>
