<svg width="24" height="20" viewBox="0 0 24 20" fill="none" xmlns="http://www.w3.org/2000/svg">
<path d="M2.29676 8.60995C8.33654 5.78751 12.364 3.92678 14.3792 3.02777C20.1328 0.460913 21.3284 0.0150233 22.1077 0.000142741C22.279 -0.00293856 22.6623 0.0426195 22.9105 0.258661C23.1201 0.441082 23.1778 0.687507 23.2054 0.860462C23.233 1.03342 23.2673 1.42741 23.24 1.73527C22.9282 5.2491 21.5791 13.7763 20.8927 17.7118C20.6023 19.3771 20.0304 19.9354 19.4768 19.9901C18.2737 20.1088 17.3601 19.1373 16.1948 18.3179C14.3713 17.0359 13.3411 16.2378 11.5711 14.9867C9.5256 13.5409 10.8516 12.7462 12.0174 11.4476C12.3225 11.1077 17.6236 5.93594 17.7262 5.46679C17.739 5.40811 17.7509 5.18939 17.6298 5.0739C17.5086 4.95841 17.3298 4.99791 17.2008 5.02932C17.0179 5.07384 14.1049 7.13899 8.46172 11.2248C7.63487 11.8338 6.88593 12.1305 6.21491 12.1149C5.47516 12.0978 4.05219 11.6663 2.99435 11.2975C1.69687 10.8451 0.665655 10.606 0.755451 9.83769C0.802222 9.43752 1.31599 9.02828 2.29676 8.60995Z" fill="#36382E"/>
</svg>
