<svg width="51" height="51" viewBox="0 0 51 51" fill="none" xmlns="http://www.w3.org/2000/svg">
<path d="M49.4731 22.1734L46.0627 18.2113C45.4108 17.459 44.8841 16.0547 44.8841 15.0517V10.7886C44.8841 8.13054 42.7025 5.94888 40.0444 5.94888H35.7814C34.8034 5.94888 33.374 5.42227 32.6217 4.77028L28.6596 1.35988C26.9294 -0.119634 24.0957 -0.119634 22.3404 1.35988L18.4034 4.79536C17.6511 5.42227 16.2217 5.94888 15.2437 5.94888H10.9055C8.24737 5.94888 6.06571 8.13054 6.06571 10.7886V15.0767C6.06571 16.0547 5.5391 17.459 4.91219 18.2113L1.52686 22.1985C0.0724258 23.9287 0.0724258 26.7373 1.52686 28.4676L4.91219 32.4547C5.5391 33.207 6.06571 34.6113 6.06571 35.5893V39.8774C6.06571 42.5355 8.24737 44.7172 10.9055 44.7172H15.2437C16.2217 44.7172 17.6511 45.2438 18.4034 45.8958L22.3654 49.3062C24.0957 50.7857 26.9294 50.7857 28.6847 49.3062L32.6468 45.8958C33.3991 45.2438 34.8034 44.7172 35.8065 44.7172H40.0695C42.7276 44.7172 44.9092 42.5355 44.9092 39.8774V35.6144C44.9092 34.6364 45.4358 33.207 46.0878 32.4547L49.4982 28.4927C50.9527 26.7624 50.9527 23.9037 49.4731 22.1734ZM35.9318 20.5936L23.8199 32.7055C23.4688 33.0566 22.9924 33.2572 22.4908 33.2572C21.9893 33.2572 21.5128 33.0566 21.1618 32.7055L15.0933 26.637C14.366 25.9098 14.366 24.7061 15.0933 23.9789C15.8205 23.2517 17.0241 23.2517 17.7514 23.9789L22.4908 28.7183L33.2737 17.9355C34.0009 17.2082 35.2046 17.2082 35.9318 17.9355C36.6591 18.6627 36.6591 19.8663 35.9318 20.5936Z" fill="#228B22"/>
</svg>
